<svg width="159" height="83" viewBox="0 0 159 83" fill="none" xmlns="http://www.w3.org/2000/svg">
<path d="M74.7 36.2002L87.156 29.0002L74.7 21.8002V36.2002ZM102.444 17.4082C102.756 18.5362 102.972 20.0482 103.116 21.9682C103.284 23.8882 103.356 25.5442 103.356 26.9842L103.5 29.0002C103.5 34.2562 103.116 38.1202 102.444 40.5922C101.844 42.7522 100.452 44.1442 98.292 44.7442C97.164 45.0562 95.1 45.2722 91.932 45.4162C88.812 45.5842 85.956 45.6562 83.316 45.6562L79.5 45.8002C69.444 45.8002 63.18 45.4162 60.708 44.7442C58.548 44.1442 57.156 42.7522 56.556 40.5922C56.244 39.4642 56.028 37.9522 55.884 36.0322C55.716 34.1122 55.644 32.4562 55.644 31.0162L55.5 29.0002C55.5 23.7442 55.884 19.8802 56.556 17.4082C57.156 15.2482 58.548 13.8562 60.708 13.2562C61.836 12.9442 63.9 12.7282 67.068 12.5842C70.188 12.4162 73.044 12.3442 75.684 12.3442L79.5 12.2002C89.556 12.2002 95.82 12.5842 98.292 13.2562C100.452 13.8562 101.844 15.2482 102.444 17.4082Z" fill="white"/>
<path d="M34.8255 55.3998L39.0275 61.8018L43.2075 55.3998H46.8595L40.5675 64.7938V70.7998H37.4875V64.7938L31.1735 55.3998H34.8255ZM47.9959 64.8158C47.9959 63.8771 48.1352 63.0338 48.4139 62.2858C48.6926 61.5378 49.0959 60.8998 49.6239 60.3718C50.1519 59.8438 50.7899 59.4405 51.5379 59.1618C52.2859 58.8831 53.1292 58.7438 54.0679 58.7438C55.0066 58.7438 55.8499 58.8831 56.5979 59.1618C57.3459 59.4405 57.9839 59.8438 58.5119 60.3718C59.0399 60.8998 59.4432 61.5378 59.7219 62.2858C60.0006 63.0338 60.1399 63.8771 60.1399 64.8158C60.1399 65.7545 60.0006 66.5978 59.7219 67.3458C59.4432 68.0938 59.0399 68.7318 58.5119 69.2598C57.9839 69.7878 57.3459 70.1911 56.5979 70.4698C55.8499 70.7485 55.0066 70.8878 54.0679 70.8878C53.1292 70.8878 52.2859 70.7485 51.5379 70.4698C50.7899 70.1911 50.1519 69.7878 49.6239 69.2598C49.0959 68.7318 48.6926 68.0938 48.4139 67.3458C48.1352 66.5978 47.9959 65.7545 47.9959 64.8158ZM54.0679 68.2478C56.2679 68.2478 57.3679 67.1038 57.3679 64.8158C57.3679 62.5278 56.2679 61.3838 54.0679 61.3838C51.8679 61.3838 50.7679 62.5278 50.7679 64.8158C50.7679 67.1038 51.8679 68.2478 54.0679 68.2478ZM62.8576 58.8318H65.6296V65.3878C65.6296 65.8425 65.6663 66.2458 65.7396 66.5978C65.8129 66.9498 65.9376 67.2431 66.1136 67.4778C66.3043 67.7125 66.5536 67.8885 66.8616 68.0058C67.1843 68.1231 67.5949 68.1818 68.0936 68.1818C68.8709 68.1818 69.5603 67.9838 70.1616 67.5878C70.3816 67.4411 70.5503 67.2871 70.6676 67.1258C70.7996 66.9498 70.8949 66.7665 70.9536 66.5758C71.0269 66.3851 71.0783 66.2018 71.1076 66.0258C71.1369 65.8351 71.1516 65.6518 71.1516 65.4758V58.8538H73.9236V70.7998H71.5916L71.3936 69.9198C71.0123 70.1691 70.5283 70.3965 69.9416 70.6018C69.3549 70.7925 68.6656 70.8878 67.8736 70.8878C64.5296 70.8878 62.8576 69.1938 62.8576 65.8058V58.8318ZM77.3596 66.1358V56.3678H80.1536L80.1316 58.7878H82.5516V61.4278H80.1316L80.1536 67.0378C80.1536 67.1845 80.1682 67.3238 80.1976 67.4558C80.2269 67.5731 80.2709 67.6905 80.3296 67.8078C80.4029 67.9105 80.5056 67.9985 80.6376 68.0718C80.8282 68.1745 81.0262 68.2258 81.2316 68.2258C81.4076 68.2258 81.5762 68.1965 81.7376 68.1378C81.8989 68.0645 82.0382 67.9911 82.1556 67.9178C82.3022 67.8445 82.4342 67.7491 82.5516 67.6318L84.0696 69.4358C84.0402 69.4798 83.9522 69.5825 83.8056 69.7438C83.6589 69.9051 83.4462 70.0738 83.1676 70.2498C82.9036 70.4111 82.5736 70.5578 82.1776 70.6898C81.7816 70.8218 81.3196 70.8878 80.7916 70.8878C79.8529 70.8878 79.0902 70.5945 78.5036 70.0078C77.9169 69.4211 77.5576 68.6365 77.4256 67.6538C77.4109 67.6245 77.3962 67.4998 77.3816 67.2798C77.3669 67.0598 77.3596 66.6785 77.3596 66.1358ZM86.5549 58.8318H89.3269V65.3878C89.3269 65.8425 89.3635 66.2458 89.4369 66.5978C89.5102 66.9498 89.6349 67.2431 89.8109 67.4778C90.0015 67.7125 90.2509 67.8885 90.5589 68.0058C90.8815 68.1231 91.2922 68.1818 91.7909 68.1818C92.5682 68.1818 93.2575 67.9838 93.8589 67.5878C94.0789 67.4411 94.2475 67.2871 94.3649 67.1258C94.4969 66.9498 94.5922 66.7665 94.6509 66.5758C94.7242 66.3851 94.7755 66.2018 94.8049 66.0258C94.8342 65.8351 94.8489 65.6518 94.8489 65.4758V58.8538H97.6209V70.7998H95.2889L95.0909 69.9198C94.7095 70.1691 94.2255 70.3965 93.6389 70.6018C93.0522 70.7925 92.3629 70.8878 91.5709 70.8878C88.2269 70.8878 86.5549 69.1938 86.5549 65.8058V58.8318ZM101.057 70.7998V54.4978H103.829V59.5138C104.767 59.0005 105.853 58.7438 107.085 58.7438C108.009 58.7438 108.837 58.8831 109.571 59.1618C110.304 59.4405 110.927 59.8438 111.441 60.3718C111.954 60.8998 112.343 61.5378 112.607 62.2858C112.885 63.0338 113.025 63.8771 113.025 64.8158C113.025 65.7545 112.885 66.5978 112.607 67.3458C112.343 68.0938 111.954 68.7318 111.441 69.2598C110.927 69.7878 110.304 70.1911 109.571 70.4698C108.837 70.7485 108.009 70.8878 107.085 70.8878C106.395 70.8878 105.757 70.8071 105.171 70.6458C104.584 70.4845 104.056 70.2571 103.587 69.9638L103.411 70.7998H101.057ZM106.953 68.1598C109.109 68.1598 110.187 67.0451 110.187 64.8158C110.187 62.5865 109.109 61.4718 106.953 61.4718C104.811 61.4718 103.741 62.5865 103.741 64.8158C103.741 67.0451 104.811 68.1598 106.953 68.1598ZM121.164 58.7658C122.132 58.7658 122.997 58.9198 123.76 59.2278C124.522 59.5211 125.16 59.9611 125.674 60.5478C126.187 61.1638 126.546 61.8898 126.752 62.7258C126.972 63.5471 127.001 64.4711 126.84 65.4978L126.752 66.0918H118.018C118.018 66.4291 118.106 66.7371 118.282 67.0158C118.458 67.2945 118.692 67.5291 118.986 67.7198C119.279 67.9105 119.624 68.0571 120.02 68.1598C120.43 68.2625 120.856 68.3138 121.296 68.3138C121.941 68.3138 122.52 68.1965 123.034 67.9618C123.562 67.7125 123.994 67.3971 124.332 67.0158L126.136 68.8198C125.593 69.4945 124.889 70.0151 124.024 70.3818C123.173 70.7338 122.22 70.9098 121.164 70.9098C120.225 70.9098 119.382 70.7705 118.634 70.4918C117.886 70.2131 117.248 69.8098 116.72 69.2818C116.192 68.7538 115.788 68.1158 115.51 67.3678C115.231 66.6198 115.092 65.7765 115.092 64.8378C115.092 63.8991 115.231 63.0558 115.51 62.3078C115.788 61.5598 116.192 60.9218 116.72 60.3938C117.248 59.8658 117.886 59.4625 118.634 59.1838C119.382 58.9051 120.225 58.7658 121.164 58.7658ZM124.2 63.7598C124.126 63.1731 123.936 62.7038 123.628 62.3518C123.085 61.7358 122.198 61.4425 120.966 61.4718C120.672 61.4718 120.357 61.5085 120.02 61.5818C119.697 61.6405 119.389 61.7505 119.096 61.9118C118.802 62.0731 118.553 62.3078 118.348 62.6158C118.142 62.9091 118.018 63.2905 117.974 63.7598H124.2Z" fill="white"/>
</svg>
