<svg width="159" height="83" viewBox="0 0 159 83" fill="none" xmlns="http://www.w3.org/2000/svg">
<path d="M103.5 24C103.5 10.752 92.748 0 79.5 0C66.252 0 55.5 10.752 55.5 24C55.5 35.616 63.756 45.288 74.7 47.52V31.2H69.9V24H74.7V18C74.7 13.368 78.468 9.6 83.1 9.6H89.1V16.8H84.3C82.98 16.8 81.9 17.88 81.9 19.2V24H89.1V31.2H81.9V47.88C94.02 46.68 103.5 36.456 103.5 24Z" fill="white"/>
<path d="M35.4062 57.4799V60.3399H27.2442V63.7499H35.1202V66.6099H27.2442V72.8799H24.1642V57.4799H35.4062ZM37.8123 66.8959C37.8123 65.9572 37.9517 65.1139 38.2303 64.3659C38.509 63.6179 38.905 62.9799 39.4183 62.4519C39.9317 61.9239 40.555 61.5205 41.2883 61.2419C42.0217 60.9632 42.8503 60.8239 43.7743 60.8239C45.1383 60.8239 46.3043 61.1319 47.2723 61.7479L47.4263 60.8899H49.7803V72.8799H47.4263L47.2723 72.0439C46.275 72.6599 45.109 72.9679 43.7743 72.9679C42.8503 72.9679 42.0217 72.8285 41.2883 72.5499C40.555 72.2565 39.9317 71.8532 39.4183 71.3399C38.905 70.8119 38.509 70.1739 38.2303 69.4259C37.9517 68.6779 37.8123 67.8345 37.8123 66.8959ZM43.8843 70.2399C46.0403 70.2399 47.1183 69.1252 47.1183 66.8959C47.1183 64.6519 46.0403 63.5299 43.8843 63.5299C41.7283 63.5299 40.6503 64.6519 40.6503 66.8959C40.6503 69.1252 41.7283 70.2399 43.8843 70.2399ZM58.4691 60.8459C60.0238 60.8459 61.2778 61.2052 62.2311 61.9239C63.1991 62.6425 63.8518 63.6839 64.1891 65.0479L64.2771 65.3999L61.3951 65.3779C61.2045 64.7325 60.8745 64.2632 60.4051 63.9699C59.9505 63.6765 59.3125 63.5299 58.4911 63.5299C56.3938 63.5299 55.3451 64.6519 55.3451 66.8959C55.3451 69.1399 56.3938 70.2619 58.4911 70.2619C59.3125 70.2619 59.9505 70.1152 60.4051 69.8219C60.8745 69.5285 61.2045 69.0592 61.3951 68.4139H64.2771L64.1891 68.7439C63.8225 70.1079 63.1625 71.1565 62.2091 71.8899C61.2705 72.6085 60.0238 72.9679 58.4691 72.9679C57.5451 72.9679 56.7165 72.8285 55.9831 72.5499C55.2498 72.2712 54.6265 71.8679 54.1131 71.3399C53.5998 70.8119 53.2038 70.1739 52.9251 69.4259C52.6611 68.6779 52.5291 67.8345 52.5291 66.8959C52.5291 65.9572 52.6611 65.1139 52.9251 64.3659C53.2038 63.6179 53.5998 62.9872 54.1131 62.4739C54.6265 61.9459 55.2498 61.5425 55.9831 61.2639C56.7165 60.9852 57.5451 60.8459 58.4691 60.8459ZM72.3941 60.8459C73.3621 60.8459 74.2274 60.9999 74.9901 61.3079C75.7528 61.6012 76.3908 62.0412 76.9041 62.6279C77.4174 63.2439 77.7768 63.9699 77.9821 64.8059C78.2021 65.6272 78.2314 66.5512 78.0701 67.5779L77.9821 68.1719H69.2481C69.2481 68.5092 69.3361 68.8172 69.5121 69.0959C69.6881 69.3745 69.9228 69.6092 70.2161 69.7999C70.5094 69.9905 70.8541 70.1372 71.2501 70.2399C71.6608 70.3425 72.0861 70.3939 72.5261 70.3939C73.1714 70.3939 73.7508 70.2765 74.2641 70.0419C74.7921 69.7925 75.2248 69.4772 75.5621 69.0959L77.3661 70.8999C76.8234 71.5745 76.1194 72.0952 75.2541 72.4619C74.4034 72.8139 73.4501 72.9899 72.3941 72.9899C71.4554 72.9899 70.6121 72.8505 69.8641 72.5719C69.1161 72.2932 68.4781 71.8899 67.9501 71.3619C67.4221 70.8339 67.0188 70.1959 66.7401 69.4479C66.4614 68.6999 66.3221 67.8565 66.3221 66.9179C66.3221 65.9792 66.4614 65.1359 66.7401 64.3879C67.0188 63.6399 67.4221 63.0019 67.9501 62.4739C68.4781 61.9459 69.1161 61.5425 69.8641 61.2639C70.6121 60.9852 71.4554 60.8459 72.3941 60.8459ZM75.4301 65.8399C75.3568 65.2532 75.1661 64.7839 74.8581 64.4319C74.3154 63.8159 73.4281 63.5225 72.1961 63.5519C71.9028 63.5519 71.5874 63.5885 71.2501 63.6619C70.9274 63.7205 70.6194 63.8305 70.3261 63.9919C70.0328 64.1532 69.7834 64.3879 69.5781 64.6959C69.3728 64.9892 69.2481 65.3705 69.2041 65.8399H75.4301ZM80.883 72.8799V56.5779H83.655V61.5939C84.5937 61.0805 85.679 60.8239 86.911 60.8239C87.835 60.8239 88.6637 60.9632 89.397 61.2419C90.1303 61.5205 90.7537 61.9239 91.267 62.4519C91.7803 62.9799 92.169 63.6179 92.433 64.3659C92.7117 65.1139 92.851 65.9572 92.851 66.8959C92.851 67.8345 92.7117 68.6779 92.433 69.4259C92.169 70.1739 91.7803 70.8119 91.267 71.3399C90.7537 71.8679 90.1303 72.2712 89.397 72.5499C88.6637 72.8285 87.835 72.9679 86.911 72.9679C86.2217 72.9679 85.5837 72.8872 84.997 72.7259C84.4103 72.5645 83.8823 72.3372 83.413 72.0439L83.237 72.8799H80.883ZM86.779 70.2399C88.935 70.2399 90.013 69.1252 90.013 66.8959C90.013 64.6665 88.935 63.5519 86.779 63.5519C84.6377 63.5519 83.567 64.6665 83.567 66.8959C83.567 69.1252 84.6377 70.2399 86.779 70.2399ZM94.9178 66.8959C94.9178 65.9572 95.0571 65.1139 95.3358 64.3659C95.6145 63.6179 96.0178 62.9799 96.5458 62.4519C97.0738 61.9239 97.7118 61.5205 98.4598 61.2419C99.2078 60.9632 100.051 60.8239 100.99 60.8239C101.928 60.8239 102.772 60.9632 103.52 61.2419C104.268 61.5205 104.906 61.9239 105.434 62.4519C105.962 62.9799 106.365 63.6179 106.644 64.3659C106.922 65.1139 107.062 65.9572 107.062 66.8959C107.062 67.8345 106.922 68.6779 106.644 69.4259C106.365 70.1739 105.962 70.8119 105.434 71.3399C104.906 71.8679 104.268 72.2712 103.52 72.5499C102.772 72.8285 101.928 72.9679 100.99 72.9679C100.051 72.9679 99.2078 72.8285 98.4598 72.5499C97.7118 72.2712 97.0738 71.8679 96.5458 71.3399C96.0178 70.8119 95.6145 70.1739 95.3358 69.4259C95.0571 68.6779 94.9178 67.8345 94.9178 66.8959ZM100.99 70.3279C103.19 70.3279 104.29 69.1839 104.29 66.8959C104.29 64.6079 103.19 63.4639 100.99 63.4639C98.7898 63.4639 97.6898 64.6079 97.6898 66.8959C97.6898 69.1839 98.7898 70.3279 100.99 70.3279ZM109.097 66.8959C109.097 65.9572 109.237 65.1139 109.515 64.3659C109.794 63.6179 110.197 62.9799 110.725 62.4519C111.253 61.9239 111.891 61.5205 112.639 61.2419C113.387 60.9632 114.231 60.8239 115.169 60.8239C116.108 60.8239 116.951 60.9632 117.699 61.2419C118.447 61.5205 119.085 61.9239 119.613 62.4519C120.141 62.9799 120.545 63.6179 120.823 64.3659C121.102 65.1139 121.241 65.9572 121.241 66.8959C121.241 67.8345 121.102 68.6779 120.823 69.4259C120.545 70.1739 120.141 70.8119 119.613 71.3399C119.085 71.8679 118.447 72.2712 117.699 72.5499C116.951 72.8285 116.108 72.9679 115.169 72.9679C114.231 72.9679 113.387 72.8285 112.639 72.5499C111.891 72.2712 111.253 71.8679 110.725 71.3399C110.197 70.8119 109.794 70.1739 109.515 69.4259C109.237 68.6779 109.097 67.8345 109.097 66.8959ZM115.169 70.3279C117.369 70.3279 118.469 69.1839 118.469 66.8959C118.469 64.6079 117.369 63.4639 115.169 63.4639C112.969 63.4639 111.869 64.6079 111.869 66.8959C111.869 69.1839 112.969 70.3279 115.169 70.3279ZM126.731 56.5559V66.1039L132.055 60.8899H135.993L131.043 65.6859L135.839 72.8799H132.451L128.997 67.6659L126.731 69.8439V72.8799H123.959V56.5559H126.731Z" fill="white"/>
</svg>
