<svg width="159" height="83" viewBox="0 0 159 83" fill="none" xmlns="http://www.w3.org/2000/svg">
<path d="M79.5 0C72.987 0 72.168 0.03 69.609 0.144C67.05 0.264 65.307 0.666 63.78 1.26C62.1775 1.86098 60.7264 2.8062 59.529 4.029C58.3062 5.22642 57.361 6.67753 56.76 8.28C56.166 9.804 55.761 11.55 55.644 14.1C55.53 16.665 55.5 17.481 55.5 24.003C55.5 30.519 55.53 31.335 55.644 33.894C55.764 36.45 56.166 38.193 56.76 39.72C57.375 41.298 58.194 42.636 59.529 43.971C60.861 45.306 62.199 46.128 63.777 46.74C65.307 47.334 67.047 47.739 69.603 47.856C72.165 47.97 72.981 48 79.5 48C86.019 48 86.832 47.97 89.394 47.856C91.947 47.736 93.696 47.334 95.223 46.74C96.8244 46.1386 98.2744 45.1934 99.471 43.971C100.806 42.636 101.625 41.298 102.24 39.72C102.831 38.193 103.236 36.45 103.356 33.894C103.47 31.335 103.5 30.519 103.5 24C103.5 17.481 103.47 16.665 103.356 14.103C103.236 11.55 102.831 9.804 102.24 8.28C101.639 6.67753 100.694 5.22642 99.471 4.029C98.2736 2.8062 96.8225 1.86098 95.22 1.26C93.69 0.666 91.944 0.261 89.391 0.144C86.829 0.03 86.016 0 79.494 0H79.5ZM77.349 4.326H79.503C85.911 4.326 86.67 4.347 89.199 4.464C91.539 4.569 92.811 4.962 93.657 5.289C94.776 5.724 95.577 6.246 96.417 7.086C97.257 7.926 97.776 8.724 98.211 9.846C98.541 10.689 98.931 11.961 99.036 14.301C99.153 16.83 99.177 17.589 99.177 23.994C99.177 30.399 99.153 31.161 99.036 33.69C98.931 36.03 98.538 37.299 98.211 38.145C97.8235 39.1857 97.2097 40.1274 96.414 40.902C95.574 41.742 94.776 42.261 93.654 42.696C92.814 43.026 91.542 43.416 89.199 43.524C86.67 43.638 85.911 43.665 79.503 43.665C73.095 43.665 72.333 43.638 69.804 43.524C67.464 43.416 66.195 43.026 65.349 42.696C64.3075 42.3098 63.3648 41.697 62.589 40.902C61.7918 40.1268 61.177 39.1841 60.789 38.142C60.462 37.299 60.069 36.027 59.964 33.687C59.85 31.158 59.826 30.399 59.826 23.988C59.826 17.577 59.85 16.824 59.964 14.295C60.072 11.955 60.462 10.683 60.792 9.837C61.227 8.718 61.749 7.917 62.589 7.077C63.429 6.237 64.227 5.718 65.349 5.283C66.195 4.953 67.464 4.563 69.804 4.455C72.018 4.353 72.876 4.323 77.349 4.32V4.326ZM92.313 8.31C91.9348 8.31 91.5603 8.38449 91.2109 8.52923C90.8615 8.67396 90.544 8.8861 90.2765 9.15353C90.0091 9.42097 89.797 9.73845 89.6522 10.0879C89.5075 10.4373 89.433 10.8118 89.433 11.19C89.433 11.5682 89.5075 11.9427 89.6522 12.2921C89.797 12.6415 90.0091 12.959 90.2765 13.2265C90.544 13.4939 90.8615 13.706 91.2109 13.8508C91.5603 13.9955 91.9348 14.07 92.313 14.07C93.0768 14.07 93.8094 13.7666 94.3495 13.2265C94.8896 12.6864 95.193 11.9538 95.193 11.19C95.193 10.4262 94.8896 9.69364 94.3495 9.15353C93.8094 8.61343 93.0768 8.31 92.313 8.31ZM79.503 11.676C77.8682 11.6505 76.2447 11.9505 74.7269 12.5584C73.2092 13.1664 71.8275 14.0702 70.6625 15.2173C69.4974 16.3643 68.5721 17.7317 67.9405 19.2398C67.309 20.7479 66.9837 22.3665 66.9837 24.0015C66.9837 25.6365 67.309 27.2551 67.9405 28.7632C68.5721 30.2713 69.4974 31.6387 70.6625 32.7857C71.8275 33.9328 73.2092 34.8366 74.7269 35.4446C76.2447 36.0525 77.8682 36.3525 79.503 36.327C82.7386 36.2765 85.8246 34.9557 88.0949 32.6497C90.3652 30.3438 91.6377 27.2375 91.6377 24.0015C91.6377 20.7655 90.3652 17.6592 88.0949 15.3532C85.8246 13.0473 82.7386 11.7265 79.503 11.676ZM79.503 15.999C80.5537 15.999 81.5941 16.206 82.5648 16.608C83.5356 17.0101 84.4176 17.5995 85.1606 18.3424C85.9035 19.0854 86.4929 19.9674 86.895 20.9382C87.297 21.9089 87.504 22.9493 87.504 24C87.504 25.0507 87.297 26.0911 86.895 27.0618C86.4929 28.0326 85.9035 28.9146 85.1606 29.6576C84.4176 30.4005 83.5356 30.9899 82.5648 31.392C81.5941 31.794 80.5537 32.001 79.503 32.001C77.381 32.001 75.3459 31.158 73.8454 29.6576C72.345 28.1571 71.502 26.122 71.502 24C71.502 21.878 72.345 19.8429 73.8454 18.3424C75.3459 16.842 77.381 15.999 79.503 15.999Z" fill="white"/>
<path d="M22.021 73V57.6H25.101V73H22.021ZM29.2238 73V61.032H31.5558L31.7538 61.912C32.1351 61.6627 32.6191 61.4427 33.2058 61.252C33.7925 61.0467 34.4818 60.944 35.2738 60.944C36.8725 60.944 38.1045 61.384 38.9698 62.264C39.8498 63.144 40.2898 64.398 40.2898 66.026V73H37.5178V66.444C37.5178 65.9747 37.4811 65.5713 37.4078 65.234C37.3345 64.882 37.2025 64.5887 37.0118 64.354C36.8358 64.1193 36.5865 63.9433 36.2638 63.826C35.9558 63.7087 35.5525 63.65 35.0538 63.65C34.2765 63.65 33.5871 63.848 32.9858 64.244C32.5605 64.5227 32.2891 64.86 32.1718 65.256C32.0691 65.652 32.0105 66.0187 31.9958 66.356V73H29.2238ZM42.7798 69.194H45.5078C45.5371 69.282 45.5958 69.3993 45.6838 69.546C45.7864 69.6927 45.9331 69.8393 46.1238 69.986C46.3291 70.118 46.5931 70.2353 46.9158 70.338C47.2384 70.4407 47.6491 70.492 48.1478 70.492C48.8958 70.492 49.4751 70.3967 49.8858 70.206C50.3111 70.0153 50.4871 69.722 50.4138 69.326C50.3111 68.8127 49.4604 68.446 47.8618 68.226C47.6564 68.1967 47.3924 68.16 47.0698 68.116C46.7618 68.0573 46.4244 67.9767 46.0578 67.874C45.7058 67.7567 45.3464 67.61 44.9798 67.434C44.6278 67.2433 44.3051 67.0087 44.0118 66.73C43.7331 66.4513 43.5131 66.1213 43.3518 65.74C43.2051 65.344 43.1464 64.882 43.1758 64.354C43.2198 63.826 43.3664 63.3567 43.6158 62.946C43.8651 62.5207 44.1951 62.1613 44.6058 61.868C45.0311 61.56 45.5298 61.3253 46.1018 61.164C46.6884 61.0027 47.3264 60.922 48.0158 60.922C48.7051 60.9367 49.3358 61.0393 49.9078 61.23C50.4944 61.4207 50.9931 61.6847 51.4038 62.022C51.8291 62.3593 52.1591 62.77 52.3938 63.254C52.6284 63.7233 52.7531 64.244 52.7678 64.816H50.0398C50.0398 64.552 49.9664 64.3393 49.8198 64.178C49.6878 64.002 49.5118 63.8627 49.2918 63.76C49.0864 63.6573 48.8591 63.5913 48.6098 63.562C48.3604 63.518 48.1331 63.496 47.9278 63.496C47.7371 63.496 47.5244 63.5107 47.2898 63.54C47.0698 63.5693 46.8571 63.6207 46.6518 63.694C46.4464 63.7673 46.2704 63.87 46.1238 64.002C45.9918 64.1193 45.9258 64.2807 45.9258 64.486C45.9111 64.8967 46.1018 65.168 46.4978 65.3C46.8938 65.4173 47.4878 65.5347 48.2798 65.652C48.8664 65.74 49.4531 65.8573 50.0398 66.004C50.6411 66.1507 51.1764 66.3707 51.6458 66.664C52.1151 66.9427 52.4964 67.3167 52.7898 67.786C53.0831 68.2407 53.2224 68.82 53.2078 69.524C53.1931 69.964 53.0758 70.3967 52.8558 70.822C52.6504 71.2473 52.3351 71.6287 51.9098 71.966C51.4991 72.3033 50.9711 72.5747 50.3258 72.78C49.6951 72.9853 48.9471 73.088 48.0818 73.088C47.4218 73.0733 46.7691 72.9853 46.1238 72.824C45.4931 72.648 44.9284 72.3987 44.4298 72.076C43.9458 71.7533 43.5498 71.3573 43.2418 70.888C42.9338 70.404 42.7798 69.8393 42.7798 69.194ZM55.6926 68.336V58.568H58.4866L58.4646 60.988H60.8846V63.628H58.4646L58.4866 69.238C58.4866 69.3847 58.5012 69.524 58.5306 69.656C58.5599 69.7733 58.6039 69.8907 58.6626 70.008C58.7359 70.1107 58.8386 70.1987 58.9706 70.272C59.1612 70.3747 59.3592 70.426 59.5646 70.426C59.7406 70.426 59.9092 70.3967 60.0706 70.338C60.2319 70.2647 60.3712 70.1913 60.4886 70.118C60.6352 70.0447 60.7672 69.9493 60.8846 69.832L62.4026 71.636C62.3732 71.68 62.2852 71.7827 62.1386 71.944C61.9919 72.1053 61.7792 72.274 61.5006 72.45C61.2366 72.6113 60.9066 72.758 60.5106 72.89C60.1146 73.022 59.6526 73.088 59.1246 73.088C58.1859 73.088 57.4232 72.7947 56.8366 72.208C56.2499 71.6213 55.8906 70.8367 55.7586 69.854C55.7439 69.8247 55.7292 69.7 55.7146 69.48C55.6999 69.26 55.6926 68.8787 55.6926 68.336ZM64.2059 67.016C64.2059 66.0773 64.3452 65.234 64.6239 64.486C64.9025 63.738 65.2985 63.1 65.8119 62.572C66.3252 62.044 66.9485 61.6407 67.6819 61.362C68.4152 61.0833 69.2439 60.944 70.1679 60.944C71.5319 60.944 72.6979 61.252 73.6659 61.868L73.8199 61.01H76.1739V73H73.8199L73.6659 72.164C72.6685 72.78 71.5025 73.088 70.1679 73.088C69.2439 73.088 68.4152 72.9487 67.6819 72.67C66.9485 72.3767 66.3252 71.9733 65.8119 71.46C65.2985 70.932 64.9025 70.294 64.6239 69.546C64.3452 68.798 64.2059 67.9547 64.2059 67.016ZM70.2779 70.36C72.4339 70.36 73.5119 69.2453 73.5119 67.016C73.5119 64.772 72.4339 63.65 70.2779 63.65C68.1219 63.65 67.0439 64.772 67.0439 67.016C67.0439 69.2453 68.1219 70.36 70.2779 70.36ZM78.9227 66.29C78.9227 65.3073 79.0987 64.4787 79.4507 63.804C79.8173 63.1147 80.2867 62.5647 80.8587 62.154C81.4307 61.7287 82.076 61.428 82.7947 61.252C83.528 61.0613 84.2613 60.966 84.9947 60.966C85.6987 60.966 86.278 60.8707 86.7327 60.68C87.1873 60.4747 87.554 60.2473 87.8327 59.998C88.1553 59.7193 88.4047 59.3967 88.5807 59.03L90.7807 60.724C90.6633 60.944 90.524 61.1567 90.3627 61.362C90.2307 61.538 90.0547 61.7213 89.8347 61.912C89.6293 62.1027 89.38 62.264 89.0867 62.396C89.8347 62.8213 90.348 63.3567 90.6267 64.002C90.92 64.6473 91.0667 65.41 91.0667 66.29C91.0667 66.6127 91.0373 66.95 90.9787 67.302C90.92 67.654 90.8173 68.006 90.6707 68.358C90.524 68.6953 90.3187 69.0253 90.0547 69.348C89.8053 69.656 89.4827 69.942 89.0867 70.206C90.26 70.8807 90.8613 71.878 90.8907 73.198C90.9053 74.0193 90.7367 74.7087 90.3847 75.266C90.0327 75.8233 89.5707 76.2707 88.9987 76.608C88.4413 76.9453 87.8107 77.1873 87.1067 77.334C86.4027 77.4807 85.6987 77.554 84.9947 77.554C84.276 77.554 83.572 77.466 82.8827 77.29C82.1933 77.114 81.5773 76.8427 81.0347 76.476C80.492 76.1093 80.0447 75.6327 79.6927 75.046C79.3553 74.474 79.1793 73.792 79.1647 73H81.9367C82.0247 73.3667 82.164 73.6673 82.3547 73.902C82.56 74.1367 82.802 74.32 83.0807 74.452C83.3593 74.5987 83.66 74.7013 83.9827 74.76C84.32 74.8187 84.6573 74.8553 84.9947 74.87C85.3613 74.8847 85.728 74.87 86.0947 74.826C86.476 74.782 86.8133 74.7087 87.1067 74.606C87.4147 74.518 87.664 74.386 87.8547 74.21C88.06 74.0487 88.17 73.8433 88.1847 73.594C88.1847 73.5207 88.1847 73.4107 88.1847 73.264C88.1993 73.1173 88.1553 72.9633 88.0527 72.802C87.95 72.626 87.774 72.4573 87.5247 72.296C87.2753 72.1347 86.9087 72.0027 86.4247 71.9C86.322 71.8707 86.1387 71.834 85.8747 71.79C85.6253 71.746 85.354 71.6947 85.0607 71.636C84.7673 71.5773 84.4667 71.526 84.1587 71.482C83.8653 71.4233 83.6233 71.372 83.4327 71.328C81.966 71.0347 80.844 70.47 80.0667 69.634C79.304 68.798 78.9227 67.6833 78.9227 66.29ZM84.9947 68.952C85.728 68.952 86.3073 68.8713 86.7327 68.71C87.1727 68.534 87.5027 68.3213 87.7227 68.072C87.9427 67.808 88.082 67.522 88.1407 67.214C88.214 66.906 88.2507 66.6127 88.2507 66.334C88.2507 66.0553 88.214 65.762 88.1407 65.454C88.082 65.146 87.9427 64.8673 87.7227 64.618C87.5027 64.354 87.1727 64.1413 86.7327 63.98C86.3073 63.804 85.728 63.716 84.9947 63.716C84.276 63.716 83.6967 63.804 83.2567 63.98C82.8313 64.1413 82.5087 64.354 82.2887 64.618C82.0687 64.8673 81.922 65.146 81.8487 65.454C81.79 65.762 81.7607 66.0553 81.7607 66.334C81.7607 66.6127 81.79 66.906 81.8487 67.214C81.922 67.522 82.0687 67.808 82.2887 68.072C82.5087 68.3213 82.8313 68.534 83.2567 68.71C83.6967 68.8713 84.276 68.952 84.9947 68.952ZM93.7844 61.032H96.1384L96.3364 61.868C96.6297 61.5747 96.9964 61.3473 97.4364 61.186C97.8764 61.0247 98.419 60.944 99.0644 60.944C99.475 60.944 99.8124 60.9807 100.076 61.054C100.238 61.0833 100.377 61.12 100.494 61.164V63.892C100.392 63.8627 100.282 63.8407 100.164 63.826C99.9444 63.782 99.6657 63.76 99.3284 63.76C98.375 63.76 97.6784 63.9947 97.2384 64.464C96.813 64.9187 96.5857 65.6227 96.5564 66.576V73H93.7844V61.032ZM102.083 67.016C102.083 66.0773 102.222 65.234 102.501 64.486C102.779 63.738 103.175 63.1 103.689 62.572C104.202 62.044 104.825 61.6407 105.559 61.362C106.292 61.0833 107.121 60.944 108.045 60.944C109.409 60.944 110.575 61.252 111.543 61.868L111.697 61.01H114.051V73H111.697L111.543 72.164C110.545 72.78 109.379 73.088 108.045 73.088C107.121 73.088 106.292 72.9487 105.559 72.67C104.825 72.3767 104.202 71.9733 103.689 71.46C103.175 70.932 102.779 70.294 102.501 69.546C102.222 68.798 102.083 67.9547 102.083 67.016ZM108.155 70.36C110.311 70.36 111.389 69.2453 111.389 67.016C111.389 64.772 110.311 63.65 108.155 63.65C105.999 63.65 104.921 64.772 104.921 67.016C104.921 69.2453 105.999 70.36 108.155 70.36ZM117.482 61.032H119.88L120.1 61.868C120.481 61.6333 120.98 61.4207 121.596 61.23C122.212 61.0393 122.916 60.944 123.708 60.944C125.526 60.944 126.905 61.45 127.844 62.462C128.284 62.0953 128.87 61.7507 129.604 61.428C130.352 61.1053 131.246 60.944 132.288 60.944C134.004 60.944 135.324 61.384 136.248 62.264C137.186 63.144 137.656 64.398 137.656 66.026V73H134.664V66.444C134.664 65.5347 134.488 64.8453 134.136 64.376C133.798 63.892 133.153 63.65 132.2 63.65C131.95 63.65 131.62 63.694 131.21 63.782C130.799 63.8553 130.403 64.0093 130.022 64.244C129.596 64.4933 129.31 64.8307 129.164 65.256C129.032 65.6813 128.958 66.0773 128.944 66.444V73H126.084V66.444C126.084 65.5347 125.908 64.8453 125.556 64.376C125.204 63.892 124.551 63.65 123.598 63.65C123.348 63.65 123.018 63.6867 122.608 63.76C122.212 63.8333 121.816 63.9947 121.42 64.244C121.214 64.376 121.046 64.53 120.914 64.706C120.782 64.882 120.672 65.0727 120.584 65.278C120.51 65.4687 120.452 65.6667 120.408 65.872C120.378 66.0773 120.364 66.268 120.364 66.444V73H117.482V61.032Z" fill="white"/>
</svg>
